<svg width="24" height="48" viewBox="0 0 24 48" fill="none" xmlns="http://www.w3.org/2000/svg">
<path d="M7.63687 0.229025C7.21107 -0.122706 6.58076 -0.0626633 6.22903 0.363134L0.497233 7.30191C0.145502 7.7277 0.205545 8.35802 0.631342 8.70975C1.05714 9.06148 1.68745 9.00144 2.03918 8.57564L7.13411 2.40784L13.3019 7.50277C13.7277 7.8545 14.358 7.79446 14.7097 7.36866C15.0615 6.94286 15.0014 6.31255 14.5756 5.96082L7.63687 0.229025ZM20.104 21.5905L20.8848 20.9657L20.104 21.5905ZM21.7748 47C21.7748 47.5523 22.2225 48 22.7748 48C23.3271 48 23.7748 47.5523 23.7748 47H21.7748ZM6.00451 1.09483C6.55481 6.87175 8.81854 10.8034 11.5006 13.9848C12.8287 15.5601 14.2634 16.9558 15.6126 18.2779C16.975 19.613 18.2456 20.8686 19.3232 22.2153L20.8848 20.9657C19.7199 19.5099 18.3628 18.1727 17.0124 16.8494C15.6488 15.5133 14.2853 14.1851 13.0297 12.6957C10.5444 9.74768 8.4986 6.18663 7.99549 0.905171L6.00451 1.09483ZM19.3232 22.2153C20.1966 23.3069 20.8256 24.8935 21.2506 26.8653C21.673 28.8252 21.8772 31.0846 21.9572 33.4538C22.1195 38.2592 21.7748 43.1761 21.7748 47H23.7748C23.7748 43.4337 24.1177 38.1741 23.956 33.3863C23.8741 30.959 23.6634 28.5676 23.2057 26.4439C22.7506 24.3321 22.0342 22.4022 20.8848 20.9657L19.3232 22.2153Z" fill="#FFE9FF"/>
</svg>
