<svg width="15" height="18" viewBox="0 0 15 18" fill="none" xmlns="http://www.w3.org/2000/svg">
<path d="M3.21429 1.09375V2.1875H1.60714C0.719866 2.1875 0 2.92236 0 3.82812V5.46875H15V3.82812C15 2.92236 14.2801 2.1875 13.3929 2.1875H11.7857V1.09375C11.7857 0.48877 11.3069 0 10.7143 0C10.1217 0 9.64286 0.48877 9.64286 1.09375V2.1875H5.35714V1.09375C5.35714 0.48877 4.87835 0 4.28571 0C3.69308 0 3.21429 0.48877 3.21429 1.09375ZM15 6.5625H0V15.8594C0 16.7651 0.719866 17.5 1.60714 17.5H13.3929C14.2801 17.5 15 16.7651 15 15.8594V6.5625Z" fill="#3BCCB2"/>
</svg>
