<svg width="24" height="24" viewBox="0 0 24 24" fill="none" xmlns="http://www.w3.org/2000/svg">
<g clip-path="url(#clip0_178_283)">
<path d="M21.75 12C21.75 14.5859 20.7228 17.0658 18.8943 18.8943C17.0658 20.7228 14.5859 21.75 12 21.75C9.41414 21.75 6.93419 20.7228 5.10571 18.8943C3.27723 17.0658 2.25 14.5859 2.25 12C2.25 9.41414 3.27723 6.93419 5.10571 5.10571C6.93419 3.27723 9.41414 2.25 12 2.25C14.5859 2.25 17.0658 3.27723 18.8943 5.10571C20.7228 6.93419 21.75 9.41414 21.75 12ZM0 12C0 15.1826 1.26428 18.2348 3.51472 20.4853C5.76515 22.7357 8.8174 24 12 24C15.1826 24 18.2348 22.7357 20.4853 20.4853C22.7357 18.2348 24 15.1826 24 12C24 8.8174 22.7357 5.76515 20.4853 3.51472C18.2348 1.26428 15.1826 0 12 0C8.8174 0 5.76515 1.26428 3.51472 3.51472C1.26428 5.76515 0 8.8174 0 12ZM13.8094 6.33281C13.6125 6.12188 13.3359 6 13.0453 6C12.4688 6 12 6.46875 12 7.04531V9.75L7.5 9.75C6.67031 9.75 6 10.4203 6 11.25V12.75C6 13.5797 6.67031 14.25 7.5 14.25L12 14.25V16.9547C12 17.5312 12.4688 18 13.0453 18C13.3359 18 13.6125 17.8781 13.8094 17.6672L18.4922 12.6469C18.6562 12.4687 18.75 12.2391 18.75 12C18.75 11.7609 18.6562 11.5266 18.4922 11.3531L13.8094 6.33281Z" fill="url(#paint0_linear_178_283)" fill-opacity="0.85"/>
</g>
<defs>
<linearGradient id="paint0_linear_178_283" x1="-2.82353" y1="2.34754e-06" x2="26.3529" y2="1.46399e-06" gradientUnits="userSpaceOnUse">
<stop stop-color="#F7EEF9"/>
<stop offset="0.40625" stop-color="#8CDCD2"/>
<stop offset="0.84375" stop-color="#3BCCB2"/>
</linearGradient>
<clipPath id="clip0_178_283">
<rect width="24" height="24" fill="white" transform="matrix(-1 0 0 -1 24 24)"/>
</clipPath>
</defs>
</svg>
