<svg width="65" height="73" viewBox="0 0 65 73" fill="none" xmlns="http://www.w3.org/2000/svg">
<path d="M65 11.4062V18.25C65 24.552 50.4475 29.6562 32.5 29.6562C14.5525 29.6562 0 24.552 0 18.25V11.4062C0 5.1043 14.5525 0 32.5 0C50.4475 0 65 5.1043 65 11.4062ZM57.0491 30.6115C60.067 29.5564 62.8382 28.202 65 26.5338V41.0625C65 47.3645 50.4475 52.4688 32.5 52.4688C14.5525 52.4688 0 47.3645 0 41.0625V26.5338C2.16183 28.2162 4.93304 29.5564 7.95089 30.6115C14.4654 32.8928 23.1417 34.2188 32.5 34.2188C41.8583 34.2188 50.5346 32.8928 57.0491 30.6115ZM0 49.3463C2.16183 51.0287 4.93304 52.3689 7.95089 53.424C14.4654 55.7053 23.1417 57.0312 32.5 57.0312C41.8583 57.0312 50.5346 55.7053 57.0491 53.424C60.067 52.3689 62.8382 51.0145 65 49.3463V61.5938C65 67.8957 50.4475 73 32.5 73C14.5525 73 0 67.8957 0 61.5938V49.3463Z" fill="url(#paint0_linear_234_5)" fill-opacity="0.85"/>
<defs>
<linearGradient id="paint0_linear_234_5" x1="72.6471" y1="73" x2="-6.37255" y2="73" gradientUnits="userSpaceOnUse">
<stop stop-color="#F7EEF9"/>
<stop offset="0.40625" stop-color="#8CDCD2"/>
<stop offset="0.84375" stop-color="#3BCCB2"/>
</linearGradient>
</defs>
</svg>
