<svg width="35" height="31" viewBox="0 0 35 31" fill="none" xmlns="http://www.w3.org/2000/svg">
<path d="M0 4.5625C0 2.14941 1.96191 0.1875 4.375 0.1875H13.4053C14.7109 0.1875 15.9619 0.707031 16.8848 1.62988L19.8174 4.5625H30.625C33.0381 4.5625 35 6.52441 35 8.9375V26.4375C35 28.8506 33.0381 30.8125 30.625 30.8125H4.375C1.96191 30.8125 0 28.8506 0 26.4375V4.5625ZM4.375 3.46875C3.77344 3.46875 3.28125 3.96094 3.28125 4.5625V26.4375C3.28125 27.0391 3.77344 27.5312 4.375 27.5312H30.625C31.2266 27.5312 31.7188 27.0391 31.7188 26.4375V8.9375C31.7188 8.33594 31.2266 7.84375 30.625 7.84375H19.5918C18.8672 7.84375 18.1699 7.55664 17.6572 7.04395L14.5674 3.94727C14.2598 3.63965 13.8428 3.46875 13.4053 3.46875H4.375Z" fill="#3BCCB2"/>
</svg>
