<svg width="90" height="63" viewBox="0 0 90 63" fill="none" xmlns="http://www.w3.org/2000/svg">
<path d="M8.93085 8.97939C8.93085 4.02669 12.9358 0 17.8617 0H71.4468C76.3727 0 80.3777 4.02669 80.3777 8.97939V44.8969H71.4468V8.97939H17.8617V44.8969H8.93085V8.97939ZM0 52.0805C0 50.5932 1.20008 49.3866 2.67926 49.3866H86.6293C88.1084 49.3866 89.3085 50.5932 89.3085 52.0805C89.3085 58.0293 84.5082 62.8557 78.5915 62.8557H10.717C4.80033 62.8557 0 58.0293 0 52.0805ZM39.212 24.8336L34.8861 29.183L39.212 33.5324C40.5237 34.8513 40.5237 36.9839 39.212 38.2887C37.9003 39.5935 35.7792 39.6075 34.4815 38.2887L27.7833 31.5541C26.4716 30.2353 26.4716 28.1027 27.7833 26.7979L34.4815 20.0633C35.7932 18.7445 37.9143 18.7445 39.212 20.0633C40.5098 21.3822 40.5237 23.5148 39.212 24.8196V24.8336ZM54.841 20.0633L61.5391 26.7979C62.8509 28.1167 62.8509 30.2493 61.5391 31.5541L54.841 38.2887C53.5293 39.6075 51.4082 39.6075 50.1104 38.2887C48.8127 36.9698 48.7987 34.8372 50.1104 33.5324L54.4363 29.183L50.1104 24.8336C48.7987 23.5148 48.7987 21.3822 50.1104 20.0774C51.4222 18.7725 53.5432 18.7585 54.841 20.0774V20.0633Z" fill="url(#paint0_linear_234_6)" fill-opacity="0.85"/>
<defs>
<linearGradient id="paint0_linear_234_6" x1="99.8154" y1="62.8557" x2="-8.75574" y2="62.8557" gradientUnits="userSpaceOnUse">
<stop stop-color="#F7EEF9"/>
<stop offset="0.40625" stop-color="#8CDCD2"/>
<stop offset="0.84375" stop-color="#3BCCB2"/>
</linearGradient>
</defs>
</svg>
