<svg width="25" height="24" viewBox="0 0 25 24" fill="none" xmlns="http://www.w3.org/2000/svg">
<path d="M22.2894 0H1.70921C0.766196 0 0 0.776786 0 1.73036V22.2696C0 23.2232 0.766196 24 1.70921 24H22.2894C23.2324 24 24.0039 23.2232 24.0039 22.2696V1.73036C24.0039 0.776786 23.2324 0 22.2894 0ZM7.25476 20.5714H3.69703V9.11786H7.26011V20.5714H7.25476ZM5.47589 7.55357C4.33464 7.55357 3.41306 6.62679 3.41306 5.49107C3.41306 4.35536 4.33464 3.42857 5.47589 3.42857C6.61179 3.42857 7.53873 4.35536 7.53873 5.49107C7.53873 6.63214 6.61715 7.55357 5.47589 7.55357ZM20.5909 20.5714H17.0331V15C17.0331 13.6714 17.0063 11.9625 15.1846 11.9625C13.3307 11.9625 13.0468 13.4089 13.0468 14.9036V20.5714H9.48905V9.11786H12.9021V10.6821H12.9503C13.4272 9.78214 14.5899 8.83393 16.3205 8.83393C19.9211 8.83393 20.5909 11.2071 20.5909 14.2929V20.5714Z" fill="#FFE9FF"/>
</svg>
