<svg width="56" height="78" viewBox="0 0 56 78" fill="none" xmlns="http://www.w3.org/2000/svg">
<path d="M45.9142 7.6294C46.7571 5.59305 46.1285 3.21484 44.3999 1.90682C42.6714 0.5988 40.3142 0.717711 38.6999 2.17437L2.12849 35.4694C0.699923 36.7774 0.185637 38.8732 0.857066 40.7163C1.52849 42.5594 3.24278 43.808 5.14278 43.808H21.0714L10.0856 70.4737C9.24278 72.5101 9.87135 74.8883 11.5999 76.1963C13.3285 77.5044 15.6856 77.3854 17.2999 75.9288L53.8714 42.6338C55.2999 41.3257 55.8142 39.2299 55.1428 37.3868C54.4714 35.5437 52.7714 34.31 50.8571 34.31H34.9285L45.9142 7.6294Z" fill="url(#paint0_linear_234_3)" fill-opacity="0.85"/>
<defs>
<linearGradient id="paint0_linear_234_3" x1="61.8896" y1="77.1044" x2="-4.81388" y2="77.1044" gradientUnits="userSpaceOnUse">
<stop stop-color="#F7EEF9"/>
<stop offset="0.40625" stop-color="#8CDCD2"/>
<stop offset="0.84375" stop-color="#3BCCB2"/>
</linearGradient>
</defs>
</svg>
